<svg viewBox="0 0 109.9608154296875 110.1083984375" version="1.1" xmlns="http://www.w3.org/2000/svg"
     style="width: 17px; height: 17px;" class=" glyph-box">
    <g transform="matrix(1 0 0 1 -8.740190429687573 90.2841796875)">
        <path d="M 63.7207 -90.1367 C 62.3047 -90.1367 61.0352 -88.8672 61.0352 -87.4023 C 61.0352 -85.9863 62.3047 -84.7656 63.7207 -84.7656 C 65.2344 -84.7656 66.4062 -85.9863 66.4062 -87.4023 C 66.4062 -88.8672 65.2344 -90.1367 63.7207 -90.1367 Z M 54.5898 -89.3555 C 53.1738 -89.3555 51.9043 -88.0371 51.9043 -86.5723 C 51.9043 -85.1562 53.1738 -83.9355 54.5898 -83.9355 C 56.1523 -83.9355 57.2754 -85.1562 57.2754 -86.5723 C 57.2754 -88.0371 56.1523 -89.3555 54.5898 -89.3555 Z M 72.8516 -89.3555 C 71.2891 -89.3555 70.166 -88.0371 70.166 -86.5723 C 70.166 -85.1562 71.2891 -83.9355 72.8516 -83.9355 C 74.2676 -83.9355 75.5371 -85.1562 75.5371 -86.5723 C 75.5371 -88.0371 74.2676 -89.3555 72.8516 -89.3555 Z M 45.8008 -87.0117 C 44.3848 -87.0117 43.1152 -85.6934 43.1152 -84.2285 C 43.1152 -82.8125 44.3848 -81.5918 45.8008 -81.5918 C 47.3633 -81.5918 48.4863 -82.8125 48.4863 -84.2285 C 48.4863 -85.6934 47.3633 -87.0117 45.8008 -87.0117 Z M 81.6406 -87.0117 C 80.0781 -87.0117 78.9062 -85.6934 78.9062 -84.2285 C 78.9062 -82.8125 80.0781 -81.5918 81.6406 -81.5918 C 83.0566 -81.5918 84.3262 -82.8125 84.3262 -84.2285 C 84.3262 -85.6934 83.0566 -87.0117 81.6406 -87.0117 Z M 37.5488 -83.1055 C 36.1328 -83.1055 34.8633 -81.8359 34.8633 -80.3711 C 34.8633 -78.9551 36.1328 -77.7344 37.5488 -77.7344 C 39.1113 -77.7344 40.2344 -78.9551 40.2344 -80.3711 C 40.2344 -81.8359 39.1113 -83.1055 37.5488 -83.1055 Z M 89.8926 -83.1055 C 88.3301 -83.1055 87.1582 -81.8359 87.1582 -80.3711 C 87.1582 -78.9551 88.3301 -77.7344 89.8926 -77.7344 C 91.3086 -77.7344 92.5781 -78.9551 92.5781 -80.3711 C 92.5781 -81.8359 91.3086 -83.1055 89.8926 -83.1055 Z M 30.0293 -77.8809 C 28.6621 -77.8809 27.3438 -76.6113 27.3438 -75.1465 C 27.3438 -73.7305 28.6621 -72.5098 30.0293 -72.5098 C 31.5918 -72.5098 32.7637 -73.7305 32.7637 -75.1465 C 32.7637 -76.6113 31.5918 -77.8809 30.0293 -77.8809 Z M 97.3633 -77.8809 C 95.8496 -77.8809 94.6777 -76.6113 94.6777 -75.1465 C 94.6777 -73.7305 95.8496 -72.5098 97.3633 -72.5098 C 98.7793 -72.5098 100.098 -73.7305 100.098 -75.1465 C 100.098 -76.6113 98.7793 -77.8809 97.3633 -77.8809 Z M 63.7207 4.88281 C 85.8398 4.88281 103.76 -12.9883 103.76 -35.1562 C 103.76 -57.1777 85.7422 -75.1465 63.7207 -75.1465 C 41.5039 -75.1465 23.6816 -57.2754 23.6816 -35.1562 C 23.6816 -12.8418 41.4551 4.88281 63.7207 4.88281 Z M 23.6328 -71.4355 C 22.2168 -71.4355 20.8984 -70.166 20.8984 -68.7012 C 20.8984 -67.2852 22.2168 -66.0645 23.6328 -66.0645 C 25.1465 -66.0645 26.3184 -67.2852 26.3184 -68.7012 C 26.3184 -70.166 25.1465 -71.4355 23.6328 -71.4355 Z M 103.809 -71.4355 C 102.295 -71.4355 101.123 -70.166 101.123 -68.7012 C 101.123 -67.2852 102.295 -66.0645 103.809 -66.0645 C 105.225 -66.0645 106.543 -67.2852 106.543 -68.7012 C 106.543 -70.166 105.225 -71.4355 103.809 -71.4355 Z M 63.7207 -0.488281 C 44.3848 -0.488281 29.0527 -15.8203 29.0527 -35.1562 C 29.0527 -54.3457 44.5312 -69.7754 63.7207 -69.7754 C 82.8125 -69.7754 98.3398 -54.248 98.3398 -35.1562 C 98.3398 -15.918 82.9102 -0.488281 63.7207 -0.488281 Z M 18.4082 -63.9648 C 16.9922 -63.9648 15.7227 -62.6465 15.7227 -61.1816 C 15.7227 -59.7656 16.9922 -58.5449 18.4082 -58.5449 C 19.9219 -58.5449 21.0938 -59.7656 21.0938 -61.1816 C 21.0938 -62.6465 19.9219 -63.9648 18.4082 -63.9648 Z M 109.033 -63.9648 C 107.52 -63.9648 106.348 -62.6465 106.348 -61.1816 C 106.348 -59.7656 107.52 -58.5449 109.033 -58.5449 C 110.449 -58.5449 111.719 -59.7656 111.719 -61.1816 C 111.719 -62.6465 110.449 -63.9648 109.033 -63.9648 Z M 14.5508 -55.6641 C 13.1348 -55.6641 11.8652 -54.3945 11.8652 -52.9297 C 11.8652 -51.5137 13.1348 -50.293 14.5508 -50.293 C 16.1133 -50.293 17.2363 -51.5137 17.2363 -52.9297 C 17.2363 -54.3945 16.1133 -55.6641 14.5508 -55.6641 Z M 112.891 -55.6641 C 111.328 -55.6641 110.205 -54.3945 110.205 -52.9297 C 110.205 -51.5137 111.328 -50.293 112.891 -50.293 C 114.307 -50.293 115.576 -51.5137 115.576 -52.9297 C 115.576 -54.3945 114.307 -55.6641 112.891 -55.6641 Z M 51.9043 -22.168 C 51.9043 -19.3848 53.8574 -18.3594 56.543 -19.873 L 78.9551 -32.666 C 81.2988 -33.9844 81.2988 -36.377 78.9551 -37.6953 L 56.543 -50.5371 C 53.9062 -52.002 51.9043 -51.0254 51.9043 -48.2422 Z M 12.207 -46.9238 C 10.791 -46.9238 9.52148 -45.6055 9.52148 -44.1406 C 9.52148 -42.7246 10.791 -41.5039 12.207 -41.5039 C 13.7695 -41.5039 14.9414 -42.7246 14.9414 -44.1406 C 14.9414 -45.6055 13.7695 -46.9238 12.207 -46.9238 Z M 115.234 -46.9238 C 113.672 -46.9238 112.5 -45.6055 112.5 -44.1406 C 112.5 -42.7246 113.672 -41.5039 115.234 -41.5039 C 116.65 -41.5039 117.92 -42.7246 117.92 -44.1406 C 117.92 -45.6055 116.65 -46.9238 115.234 -46.9238 Z M 116.016 -37.8418 C 114.453 -37.8418 113.281 -36.5723 113.281 -35.1074 C 113.281 -33.6914 114.453 -32.4707 116.016 -32.4707 C 117.432 -32.4707 118.701 -33.6914 118.701 -35.1074 C 118.701 -36.5723 117.432 -37.8418 116.016 -37.8418 Z M 11.4258 -37.8418 C 10.0098 -37.8418 8.74023 -36.5723 8.74023 -35.1074 C 8.74023 -33.6914 10.0098 -32.4707 11.4258 -32.4707 C 12.9883 -32.4707 14.1113 -33.6914 14.1113 -35.1074 C 14.1113 -36.5723 12.9883 -37.8418 11.4258 -37.8418 Z M 12.207 -23.3887 C 13.7695 -23.3887 14.9414 -24.6582 14.9414 -26.123 C 14.9414 -27.5391 13.7695 -28.7598 12.207 -28.7598 C 10.791 -28.7598 9.52148 -27.5391 9.52148 -26.123 C 9.52148 -24.6582 10.791 -23.3887 12.207 -23.3887 Z M 115.234 -23.3887 C 116.65 -23.3887 117.92 -24.6582 117.92 -26.123 C 117.92 -27.5391 116.65 -28.7598 115.234 -28.7598 C 113.672 -28.7598 112.5 -27.5391 112.5 -26.123 C 112.5 -24.6582 113.672 -23.3887 115.234 -23.3887 Z M 14.5508 -14.5996 C 16.1133 -14.5996 17.2363 -15.918 17.2363 -17.3828 C 17.2363 -18.7988 16.1133 -20.0195 14.5508 -20.0195 C 13.1348 -20.0195 11.8652 -18.7988 11.8652 -17.3828 C 11.8652 -15.918 13.1348 -14.5996 14.5508 -14.5996 Z M 112.891 -14.5996 C 114.307 -14.5996 115.576 -15.918 115.576 -17.3828 C 115.576 -18.7988 114.307 -20.0195 112.891 -20.0195 C 111.328 -20.0195 110.205 -18.7988 110.205 -17.3828 C 110.205 -15.918 111.328 -14.5996 112.891 -14.5996 Z M 18.4082 -6.34766 C 19.9219 -6.34766 21.0938 -7.61719 21.0938 -9.08203 C 21.0938 -10.498 19.9219 -11.7188 18.4082 -11.7188 C 16.9922 -11.7188 15.7227 -10.498 15.7227 -9.08203 C 15.7227 -7.61719 16.9922 -6.34766 18.4082 -6.34766 Z M 109.033 -6.34766 C 110.449 -6.34766 111.719 -7.61719 111.719 -9.08203 C 111.719 -10.498 110.449 -11.7188 109.033 -11.7188 C 107.52 -11.7188 106.348 -10.498 106.348 -9.08203 C 106.348 -7.61719 107.52 -6.34766 109.033 -6.34766 Z M 23.6328 1.12305 C 25.1465 1.12305 26.3184 -0.146484 26.3184 -1.61133 C 26.3184 -3.02734 25.1465 -4.24805 23.6328 -4.24805 C 22.2168 -4.24805 20.8984 -3.02734 20.8984 -1.61133 C 20.8984 -0.146484 22.2168 1.12305 23.6328 1.12305 Z M 103.809 1.12305 C 105.225 1.12305 106.543 -0.146484 106.543 -1.61133 C 106.543 -3.02734 105.225 -4.24805 103.809 -4.24805 C 102.295 -4.24805 101.123 -3.02734 101.123 -1.61133 C 101.123 -0.146484 102.295 1.12305 103.809 1.12305 Z M 30.0293 7.61719 C 31.5918 7.61719 32.7637 6.29883 32.7637 4.83398 C 32.7637 3.41797 31.5918 2.19727 30.0293 2.19727 C 28.6621 2.19727 27.3438 3.41797 27.3438 4.83398 C 27.3438 6.29883 28.6621 7.61719 30.0293 7.61719 Z M 97.3633 7.61719 C 98.7793 7.61719 100.098 6.29883 100.098 4.83398 C 100.098 3.41797 98.7793 2.19727 97.3633 2.19727 C 95.8496 2.19727 94.6777 3.41797 94.6777 4.83398 C 94.6777 6.29883 95.8496 7.61719 97.3633 7.61719 Z M 37.5488 12.793 C 39.1113 12.793 40.2344 11.5234 40.2344 10.0586 C 40.2344 8.64258 39.1113 7.42188 37.5488 7.42188 C 36.1328 7.42188 34.8633 8.64258 34.8633 10.0586 C 34.8633 11.5234 36.1328 12.793 37.5488 12.793 Z M 89.8926 12.793 C 91.3086 12.793 92.5781 11.5234 92.5781 10.0586 C 92.5781 8.64258 91.3086 7.42188 89.8926 7.42188 C 88.3301 7.42188 87.1582 8.64258 87.1582 10.0586 C 87.1582 11.5234 88.3301 12.793 89.8926 12.793 Z M 45.8008 16.6992 C 47.3633 16.6992 48.4863 15.4297 48.4863 13.9648 C 48.4863 12.5488 47.3633 11.2793 45.8008 11.2793 C 44.3848 11.2793 43.1152 12.5488 43.1152 13.9648 C 43.1152 15.4297 44.3848 16.6992 45.8008 16.6992 Z M 81.6406 16.6992 C 83.0566 16.6992 84.3262 15.4297 84.3262 13.9648 C 84.3262 12.5488 83.0566 11.2793 81.6406 11.2793 C 80.0781 11.2793 78.9062 12.5488 78.9062 13.9648 C 78.9062 15.4297 80.0781 16.6992 81.6406 16.6992 Z M 54.5898 19.043 C 56.1523 19.043 57.2754 17.7734 57.2754 16.3086 C 57.2754 14.8926 56.1523 13.6719 54.5898 13.6719 C 53.1738 13.6719 51.9043 14.8926 51.9043 16.3086 C 51.9043 17.7734 53.1738 19.043 54.5898 19.043 Z M 72.8516 19.043 C 74.2676 19.043 75.5371 17.7734 75.5371 16.3086 C 75.5371 14.8926 74.2676 13.6719 72.8516 13.6719 C 71.2891 13.6719 70.166 14.8926 70.166 16.3086 C 70.166 17.7734 71.2891 19.043 72.8516 19.043 Z M 63.7207 19.8242 C 65.2344 19.8242 66.4062 18.5547 66.4062 17.0898 C 66.4062 15.6738 65.2344 14.4531 63.7207 14.4531 C 62.3047 14.4531 61.0352 15.6738 61.0352 17.0898 C 61.0352 18.5547 62.3047 19.8242 63.7207 19.8242 Z"></path>
    </g>
</svg>